# xmcd
#
# Track frame offsets:
#	150
#	14407
#	27995
#	45781
#	63738
#	78135
#	92345
#	106800
#	123104
#	139177
#	156414
#	178795
#	193066
#	210953
#	224995
#	240384
#	258282
#	271301
#	287208
#	305180
#	320334
#
# Disc length: 4515 seconds
#
# Revision: 0
# Processed by: cddbd v1.5.2PL0 Copyright (c) Steve Scherf et al.
# Submitted via: EasyCDDAExtractor 11.9.9.666
#
DISCID=2a11a115
DTITLE=Terri Clark - The Ultimate Collection
DYEAR=1900
DGENRE=
TTITLE0=Better Things To Do
TTITLE1=When Boy Meets Girl
TTITLE2=If I Were You
TTITLE3=Suddenly Single
TTITLE4=Poor, Poor Pitiful Me
TTITLE5=Emotional Girl
TTITLE6=Just The Same
TTITLE7=Now That I Found You
TTITLE8=You're Easy On The Eyes
TTITLE9=Everytime I Cry
TTITLE10=Unsung Hero
TTITLE11=A Little Gasoline
TTITLE12=No Fear
TTITLE13=Getting There
TTITLE14=I Just Wanna Be Mad
TTITLE15=Three Mississippi
TTITLE16=I Wanna Do It All
TTITLE17=Girls Lie Too
TTITLE18=The World Needs A Drink
TTITLE19=She Didn't Have Time
TTITLE20=Damn Right
EXTD=
EXTT0=
EXTT1=
EXTT2=
EXTT3=
EXTT4=
EXTT5=
EXTT6=
EXTT7=
EXTT8=
EXTT9=
EXTT10=
EXTT11=
EXTT12=
EXTT13=
EXTT14=
EXTT15=
EXTT16=
EXTT17=
EXTT18=
EXTT19=
EXTT20=
PLAYORDER=
